<svg xmlns="http://www.w3.org/2000/svg" xmlns:xlink="http://www.w3.org/1999/xlink" viewBox="0 0 718.52 909.04"><defs><style>.cls-1{fill:none;}.cls-2,.cls-3{opacity:0.08;}.cls-3{fill:#3f3a35;}.cls-4{fill:#dca064;}.cls-5{fill:#ce8d4a;}.cls-6{fill:#f3bd77;}.cls-7{fill:#d98c3d;}.cls-8{fill:#cca372;opacity:0.35;}.cls-9{fill:#8f9194;}.cls-10{fill:#adadb1;}.cls-11{fill:#d5d5d6;}.cls-12{fill:#c3c4c6;}.cls-13{fill:#97989a;}.cls-14{fill:#bc6817;}.cls-15{fill:#de9f5c;}.cls-16{fill:#d3842f;}.cls-17{fill:#bc6818;}.cls-18{fill:#a34617;}.cls-19{fill:#bb6417;}.cls-20{fill:#77797d;}.cls-21{fill:#474649;}.cls-22{fill:#f3f7e8;}.cls-23{fill:#fff;}.cls-24{isolation:isolate;}.cls-25{clip-path:url(#clip-path);}.cls-26,.cls-27{fill:#82bd53;}.cls-27{font-size:31.89px;font-family:Arial-BoldMT, Arial;font-weight:700;}.cls-28{letter-spacing:-0.07em;}.cls-29{letter-spacing:0em;}.cls-30{fill:#f9e638;}.cls-31{fill:#747476;}.cls-32{fill:#dbdbdc;}.cls-33{fill:#cccdce;}.cls-34{fill:#b9b9bd;}</style><clipPath id="clip-path"><rect class="cls-1" x="329.87" y="12.41" width="30.7" height="49.01"/></clipPath></defs><title>Element 1</title><g id="Ebene_2" data-name="Ebene 2"><g id="Ebene_1-2" data-name="Ebene 1"><polygon class="cls-2" points="373 886.98 718.52 689.36 679.26 667.11 410.96 513.98 108.63 678.89 82.45 691.98 95.54 732.55 159.67 697.21 390.8 830.43 373 840.5 373 886.98"/><polygon class="cls-3" points="362.51 814.33 645.23 655.33 640 651.4 358.61 811.08 362.51 814.33"/><polygon class="cls-3" points="310.63 781.59 593.35 622.6 588.11 618.67 304.95 778.36 310.63 781.59"/><polygon class="cls-3" points="239.51 743.02 521.37 584.64 516.13 580.72 234.27 740.4 239.51 743.02"/><polygon class="cls-3" points="187.6 713.54 470.32 554.54 465.09 550.62 181.92 710.3 187.6 713.54"/><polygon class="cls-4" points="332.43 909.04 291.86 886.79 291.86 732.35 332.43 755.91 332.43 909.04"/><polygon class="cls-5" points="332.43 909.04 373 886.79 373 732.05 332.43 755.6 332.43 909.04"/><polygon class="cls-4" points="54.97 754.6 14.4 732.35 14.4 577.91 54.97 601.47 54.97 754.6"/><polygon class="cls-5" points="54.97 754.6 95.54 732.35 95.54 577.61 54.97 601.17 54.97 754.6"/><polygon class="cls-4" points="621.67 744.63 581.1 722.38 581.1 567.95 621.67 591.5 621.67 744.63"/><polygon class="cls-5" points="621.67 744.63 662.24 722.38 662.24 567.64 621.67 591.2 621.67 744.63"/><polygon class="cls-6" points="0 531 338.98 334.68 418.81 377.87 77.22 575.49 0 531"/><polygon class="cls-7" points="77.22 617.38 418.81 421.06 418.81 377.87 77.22 575.49 77.22 617.38"/><polygon class="cls-4" points="77.22 617.38 0 574.18 0 531 77.22 575.49 77.22 617.38"/><polygon class="cls-6" points="85.07 579.4 424.05 383.08 503.88 426.27 162.29 623.9 85.07 579.4"/><polygon class="cls-7" points="162.29 665.78 503.88 469.46 503.88 426.27 162.29 623.9 162.29 665.78"/><polygon class="cls-4" points="162.29 665.78 85.07 622.59 85.07 579.4 162.29 623.9 162.29 665.78"/><polygon class="cls-6" points="170.14 625.21 509.12 428.89 588.95 472.08 247.36 669.71 170.14 625.21"/><polygon class="cls-7" points="247.36 711.59 588.95 515.27 588.95 472.08 247.36 669.71 247.36 711.59"/><polygon class="cls-4" points="247.36 711.59 170.14 668.4 170.14 625.21 247.36 669.71 247.36 711.59"/><polygon class="cls-6" points="253.9 674.94 592.88 478.62 672.71 521.81 331.12 719.44 253.9 674.94"/><polygon class="cls-7" points="331.12 761.32 672.71 565 672.71 521.81 331.12 719.44 331.12 761.32"/><polygon class="cls-4" points="331.12 761.32 253.9 718.13 253.9 674.94 331.12 719.44 331.12 761.32"/><polygon class="cls-8" points="446.3 532.3 568.01 460.32 509.12 428.91 503.88 431.53 503.88 426.29 446.3 394.88 446.3 532.3"/><polygon class="cls-9" points="303.33 146.53 211.01 198.73 233 213.34 266.4 195.04 326.83 159.79 303.33 146.53"/><polygon class="cls-9" points="429.72 216.02 387.25 195.04 326.83 159.79 350.49 146.2 448.18 197.06 429.72 216.02"/><polygon class="cls-10" points="349.99 101.38 350.49 146.2 326.83 159.79 326.49 113.13 349.99 101.38"/><polygon class="cls-11" points="326.49 89.63 302.99 101.38 326.49 113.13 349.99 101.38 326.49 89.63"/><polygon class="cls-9" points="326.66 113.13 302.99 101.38 303.33 146.53 326.83 159.79 326.66 113.13"/><polygon class="cls-9" points="262.37 124.88 262.71 170.03 286.21 183.29 286.04 136.63 262.37 124.88"/><polygon class="cls-10" points="309.37 124.88 309.87 169.69 286.21 183.29 285.87 136.63 309.37 124.88"/><polygon class="cls-11" points="285.87 113.13 262.37 124.88 285.87 136.63 309.37 124.88 285.87 113.13"/><polygon class="cls-9" points="343.44 123.2 343.78 168.35 367.28 181.61 367.11 134.95 343.44 123.2"/><polygon class="cls-10" points="390.44 123.2 390.94 168.02 367.28 181.61 366.94 134.95 390.44 123.2"/><polygon class="cls-11" points="366.94 111.45 343.44 123.2 366.94 134.95 390.44 123.2 366.94 111.45"/><polygon class="cls-9" points="383.39 145.36 383.73 190.51 407.23 203.77 407.06 157.11 383.39 145.36"/><polygon class="cls-10" points="430.39 145.36 430.89 190.17 407.23 203.77 406.89 157.11 430.39 145.36"/><polygon class="cls-11" points="406.89 133.61 383.39 145.36 406.89 157.11 430.39 145.36 406.89 133.61"/><polygon class="cls-9" points="222.09 148.38 222.43 193.53 245.92 206.79 245.76 160.13 222.09 148.38"/><polygon class="cls-11" points="245.59 136.63 222.09 148.38 245.59 160.13 269.09 148.38 245.59 136.63"/><path class="cls-12" d="M331.53,330.49l.17,268.56,30.88-18-1-105.74a70.55,70.55,0,0,1,23.67-54.55c1.51-1.17,1.18-1.51,3-2,31.39-9.4,32.23,26.86,32.23,26.86L419.81,548l27.36-15.95.34-268.56Z"/><path class="cls-13" d="M432.23,540.31l-12.59,7.38.17-103.23s2.52-33.74-31.22-26.86c0,0,34.41-18.46,42,5.87Z"/><path class="cls-14" d="M355.86,582.43l74.36-40.62-1-113s-3.69-15.27-18.13-18l-2.69-.33c-2.35.33-4.87.84-7.72,1.51a66.82,66.82,0,0,0-8.73,2.85c-11.75,9.23-15.78,12.93-16.78,14.27,0,.17-2.18,2.86-2.18,2.86S357,457.39,356.37,474.51Z"/><path class="cls-15" d="M377.68,431.37A87.11,87.11,0,0,0,366.61,453a93.55,93.55,0,0,0-4.87,27.69c-1,23.5-.34,88.62-.34,101.88l18.3-10.74Z"/><path class="cls-15" d="M394.47,416.43s-13.09,10.41-15.11,13.93l1,141,15.95-9.23Z"/><path class="cls-15" d="M410.92,411.73s-11.75,1.68-14.94,4.37l1.34,145.36,16.45-9.57Z"/><path class="cls-15" d="M429.21,429.19S426,413.07,412.6,411.4l2.35,139,15.27-8.9Z"/><path class="cls-16" d="M361.57,487.43c.17-2.52.5-10.91.67-12.42l66.64-37.6-.17,11.42c-25.18,14.94-62.78,37.26-67.14,38.61"/><path class="cls-17" d="M428.37,438.09v10.41c-24.17,14.6-60.26,35.75-66.3,38.27.17-3,.5-9.74.5-11.58l65.8-37.09m.84-1.51-67.48,38.1s-.5,11.08-.67,13.09h.17c3.19,0,68-38.94,68-38.94Z"/><path class="cls-16" d="M360.9,548.86c.17-2.52.5-10.91.67-12.42l68.31-37.77-.17,11.42c-25.85,15.27-64.45,37.43-68.82,38.77"/><path class="cls-17" d="M429.38,499.52v10.41c-24.84,14.6-61.77,35.75-68,38.27.17-2.85.5-9.74.5-11.58l67.47-37.09m.84-1.51-69.15,38.1s-.5,11.08-.67,13.09h.17c3.19,0,69.49-38.94,69.49-38.94Z"/><path class="cls-18" d="M421,498.51h0a2.22,2.22,0,0,1-2.18-2.18v-21a2.18,2.18,0,0,1,4.37,0v21a2.22,2.22,0,0,1-2.18,2.18"/><rect class="cls-18" x="420.99" y="473" width="1.68" height="1.51"/><rect class="cls-18" x="420.82" y="497" width="1.68" height="1.51"/><path class="cls-19" d="M422.5,498.51h0a2.22,2.22,0,0,1-2.18-2.18v-21a2.18,2.18,0,0,1,4.36,0v21a2.22,2.22,0,0,1-2.18,2.18"/><polygon class="cls-10" points="215.88 530.06 331.36 597.2 331.53 328.81 215.38 261.51 215.88 530.06"/><polygon class="cls-20" points="282.18 301.96 255.32 285.68 255.49 308.67 272.27 339.73 281.84 334.35 282.18 301.96"/><polygon class="cls-13" points="272.27 339.73 255.32 285.68 241.22 278.46 260.02 332.68 272.27 339.73"/><path class="cls-12" d="M366.61,443.79c-11.75-3.69-23-5.21-35.25-5.87v161l30.88-18-1-105.74c-.17-12.42,1.68-23.16,5.37-31.39"/><polygon class="cls-13" points="331.19 458.56 317.26 450.67 317.26 434.89 331.02 442.11 331.19 458.56"/><polygon class="cls-11" points="331.02 458.56 344.95 450.67 344.95 434.89 331.19 442.11 331.02 458.56"/><polygon class="cls-20" points="317.26 434.89 319.78 433.72 331.02 439.6 331.02 442.11 317.26 434.89"/><polygon class="cls-13" points="344.95 434.89 342.44 433.72 331.02 439.6 331.02 442.11 344.95 434.89"/><polygon class="cls-13" points="331.69 485.42 317.76 477.36 317.76 461.75 331.53 468.97 331.69 485.42"/><polygon class="cls-11" points="331.53 485.42 345.46 477.36 345.46 461.75 331.69 468.97 331.53 485.42"/><polygon class="cls-20" points="317.76 461.75 320.28 460.58 331.53 466.45 331.53 468.97 317.76 461.75"/><polygon class="cls-13" points="345.29 461.75 342.77 460.58 331.53 466.45 331.53 468.97 345.29 461.75"/><polygon class="cls-13" points="331.53 510.76 317.59 502.87 317.59 487.26 331.36 494.48 331.53 510.76"/><polygon class="cls-11" points="331.36 510.76 345.29 502.87 345.29 487.26 331.53 494.48 331.36 510.76"/><polygon class="cls-20" points="317.59 487.26 320.11 486.09 331.36 491.96 331.36 494.48 317.59 487.26"/><polygon class="cls-13" points="345.29 487.26 342.77 486.09 331.53 491.96 331.53 494.48 345.29 487.26"/><polygon class="cls-20" points="331.53 330.49 304 314.21 304.17 337.21 320.95 368.26 331.53 362.55 331.53 330.49"/><polygon class="cls-13" points="320.95 368.26 304 314.21 289.9 306.49 308.7 361.21 320.95 368.26"/><polygon class="cls-20" points="235.85 275.44 208.32 259.66 208.49 280.14 225.28 311.19 235.85 305.48 235.85 275.44"/><polygon class="cls-13" points="225.28 311.19 208.32 259.66 195.06 251.94 213.03 304.14 225.28 311.19"/><polygon class="cls-13" points="331.53 330.49 358.88 314.21 358.55 337.21 341.93 368.26 331.53 362.55 331.53 330.49"/><polygon class="cls-11" points="341.93 368.26 358.88 314.21 372.82 306.66 354.02 361.21 341.93 368.26"/><polygon class="cls-13" points="427.87 274.94 454.56 259.66 454.39 281.82 437.94 312.87 427.87 307.16 427.87 274.94"/><polygon class="cls-11" points="437.61 312.87 454.56 259.66 468.49 251.6 449.69 305.82 437.61 312.87"/><polygon class="cls-13" points="380.87 301.79 407.56 286.52 407.39 308.67 390.94 339.73 380.87 334.02 380.87 301.79"/><polygon class="cls-11" points="390.61 339.73 407.56 286.52 421.49 278.46 402.69 332.68 390.61 339.73"/><rect class="cls-21" x="236.78" y="79.73" width="152.74" height="3.36" transform="translate(230.68 394.27) rotate(-89.81)"/><path class="cls-21" d="M313.23,156.6c1.76,0,3.19.53,3.19,1.18S315,159,313.23,159s-3.19-.53-3.19-1.17,1.43-1.18,3.19-1.18"/><path class="cls-15" d="M313.57,0a3.8,3.8,0,0,1,4,3.52,4.06,4.06,0,0,1-8.06,0,3.8,3.8,0,0,1,4-3.52"/><polygon class="cls-22" points="634.7 0.84 359.59 0.84 358.38 49.52 634.7 49.52 612.58 25.18 634.7 0.84"/><polygon class="cls-21" points="381.71 9.23 358.38 0.84 358.38 9.23 381.71 9.23"/><rect class="cls-23" x="307.86" y="9.23" width="73.85" height="48.68"/><g class="cls-24"><g class="cls-25"><path class="cls-26" d="M333.05,49.63V18.49h6.29V30.75h12.32V18.49H358V49.63h-6.29V36H339.34V49.63Z"/></g></g><text class="cls-27" transform="translate(390.67 37.95)">S<tspan class="cls-28" x="21.27" y="0">T</tspan><tspan class="cls-29" x="38.38" y="0">AMMTISCH</tspan></text><polygon class="cls-30" points="233 213.34 326.83 159.79 441.8 221.9 330.85 282.66 233 213.34"/><polygon class="cls-30" points="326.83 212.5 326.83 159.79 233 213.34 326.83 279.8 326.83 212.5"/><ellipse class="cls-23" cx="271.22" cy="214.9" rx="29.45" ry="25.52"/><ellipse class="cls-23" cx="308.22" cy="183.51" rx="29.45" ry="25.52"/><ellipse class="cls-23" cx="300.02" cy="218.83" rx="29.45" ry="25.52"/><ellipse class="cls-23" cx="337.01" cy="188.09" rx="37.3" ry="32.72"/><ellipse class="cls-23" cx="335.7" cy="231.94" rx="29.45" ry="25.52"/><ellipse class="cls-23" cx="386.4" cy="217.52" rx="29.45" ry="25.52"/><ellipse class="cls-23" cx="373.35" cy="184.99" rx="29.45" ry="25.52" transform="translate(-8.08 17.3) rotate(-2.63)"/><ellipse class="cls-23" cx="310.49" cy="162.55" rx="29.45" ry="25.52"/><ellipse class="cls-23" cx="278.12" cy="180.24" rx="24.21" ry="13.09"/><ellipse class="cls-23" cx="273.67" cy="170.24" rx="12.96" ry="13.09"/><polygon class="cls-31" points="331.69 269.23 233 213.34 209.33 226.93 331.86 297.43 331.69 269.23"/><polygon class="cls-9" points="430.05 214.34 331.19 270.24 331.86 297.43 454.39 226.93 430.05 214.34"/><polygon class="cls-9" points="186.17 247.41 332.53 331.67 331.86 297.43 186.51 213.34 186.17 247.41"/><polygon class="cls-10" points="332.53 331.67 477.55 246.74 477.55 213.5 331.86 297.43 332.53 331.67"/><rect class="cls-9" x="409.91" y="202.43" width="14.43" height="13.09"/><path d="M423.51,214.68H410.75V203.26h12.76Zm1.68-13.09H409.07v14.77h16.11Z"/><polygon class="cls-11" points="454.06 156.77 430.56 168.52 454.06 180.27 477.55 168.52 454.06 156.77"/><polygon class="cls-9" points="430.56 168.52 429.72 214.18 454.39 226.93 454.22 180.27 430.56 168.52"/><polygon class="cls-10" points="477.55 168.52 477.55 215.18 454.39 226.93 454.06 180.27 477.55 168.52"/><polygon class="cls-11" points="414.44 179.43 390.94 191.18 414.44 202.93 437.94 191.18 414.44 179.43"/><polygon class="cls-9" points="390.94 191.18 390.61 235.49 414.78 248.92 414.61 202.93 390.94 191.18"/><polygon class="cls-10" points="437.94 191.18 438.44 236 414.78 249.59 414.44 202.93 437.94 191.18"/><polygon class="cls-9" points="186.17 168.18 186.51 213.34 209.67 226.76 209.84 179.93 186.17 168.18"/><polygon class="cls-10" points="233.17 168.18 233.67 213 209.67 226.76 209.67 179.93 233.17 168.18"/><polygon class="cls-11" points="209.84 156.44 186.17 168.18 209.84 179.93 233.33 168.18 209.84 156.44"/><polygon class="cls-10" points="313.73 215.69 314.24 260.5 290.57 273.76 290.24 227.44 313.73 215.69"/><ellipse class="cls-23" cx="389.52" cy="242.55" rx="20.94" ry="15.05"/><path class="cls-23" d="M400.94,236.41c-8.63-1-16.28,4.2-17.09,11.51a11.6,11.6,0,0,0,.83,5.7,4.92,4.92,0,0,1,.78-.53,7.76,7.76,0,0,1,3.3-.89,6.24,6.24,0,0,1,4,1.41,7.13,7.13,0,0,1,2.35,3.4,21.26,21.26,0,0,1,1.06,3.35s0,.06,0,.09c.23.23.47.46.68.69l.24.27a27.68,27.68,0,0,0,7.63,1c5.58-1.51,9.8-5.68,10.39-11C415.91,244.07,409.57,237.37,400.94,236.41Z"/><polygon class="cls-9" points="349.15 215.69 348.81 260 372.98 273.43 372.82 227.44 349.15 215.69"/><polygon class="cls-11" points="372.65 203.94 349.15 215.69 372.65 227.44 396.15 215.69 372.65 203.94"/><polygon class="cls-10" points="396.15 215.69 396.65 260.5 372.98 274.1 372.65 227.44 396.15 215.69"/><ellipse class="cls-23" cx="314.28" cy="254.59" rx="21.69" ry="13.84" transform="translate(-64.13 111.79) rotate(-18.34)"/><polygon class="cls-11" points="331.53 227.27 308.03 239.02 331.53 250.76 355.02 239.02 331.53 227.27"/><polygon class="cls-10" points="355.02 239.02 355.53 283.83 331.86 297.43 331.53 250.76 355.02 239.02"/><polygon class="cls-10" points="269.09 148.38 269.59 193.19 245.92 206.79 245.59 160.13 269.09 148.38"/><ellipse class="cls-23" cx="229.59" cy="221.03" rx="21.69" ry="13.84" transform="translate(-57.87 83.44) rotate(-18.34)"/><ellipse class="cls-23" cx="216.27" cy="224.06" rx="11.31" ry="11.56" transform="translate(-64.45 358.87) rotate(-71.66)"/><polygon class="cls-9" points="225.78 191.18 225.44 235.83 249.62 249.93 249.45 202.93 225.78 191.18"/><polygon class="cls-10" points="272.78 191.18 273.28 236 249.62 249.93 249.28 202.93 272.78 191.18"/><polygon class="cls-11" points="249.28 179.43 225.78 191.18 249.28 202.93 272.78 191.18 249.28 179.43"/><polygon class="cls-9" points="266.74 215.69 266.4 260 290.57 273.76 290.4 227.44 266.74 215.69"/><polygon class="cls-11" points="290.24 203.94 266.74 215.69 290.24 227.44 313.73 215.69 290.24 203.94"/><ellipse class="cls-23" cx="299.65" cy="272.02" rx="11.31" ry="11.56" transform="translate(-52.82 470.89) rotate(-71.66)"/><polygon class="cls-9" points="308.03 239.02 307.69 283.33 331.86 297.43 331.69 250.76 308.03 239.02"/><polygon class="cls-32" points="282.73 481.56 267.04 471.41 221.81 497.25 224.58 513.86 282.73 481.56"/><polygon class="cls-33" points="282.73 501.86 202.43 548.01 204.28 394.81 284.1 347.72 283.65 371.73 225.5 403.11 224.58 513.86 282.73 481.56 282.73 501.86"/><polygon class="cls-34" points="202.43 548.01 184.9 537.86 185.82 383.73 204.28 394.81 202.43 548.01"/><polygon class="cls-34" points="185.82 383.73 204.28 394.81 283.65 347.74 265.19 338.51 185.82 383.73"/><ellipse class="cls-23" cx="287.28" cy="180.24" rx="24.21" ry="13.09"/></g></g></svg>